<svg width="21" height="20" viewBox="0 0 21 20" fill="none"
    xmlns="http://www.w3.org/2000/svg">
    <path d="M12.3 2.5H6.29999C5.90216 2.5 5.52063 2.65804 5.23933 2.93934C4.95802 3.22064 4.79999 3.60218 4.79999 4V16C4.79999 16.3978 4.95802 16.7794 5.23933 17.0607C5.52063 17.342 5.90216 17.5 6.29999 17.5H15.3C15.6978 17.5 16.0793 17.342 16.3606 17.0607C16.642 16.7794 16.8 16.3978 16.8 16V7L12.3 2.5Z" stroke="#e28b00" stroke-width="1.5" stroke-linecap="round" stroke-linejoin="round"/>
    <path d="M13.8 13.75H7.79999" stroke="#e28b00" stroke-width="1.5" stroke-linecap="round" stroke-linejoin="round"/>
    <path d="M13.8 10.75H7.79999" stroke="#e28b00" stroke-width="1.5" stroke-linecap="round" stroke-linejoin="round"/>
    <path d="M9.29999 7.75H8.54999H7.79999" stroke="#e28b00" stroke-width="1.5" stroke-linecap="round" stroke-linejoin="round"/>
    <path d="M12.3 2.5V7H16.8" stroke="#e28b00" stroke-width="1.5" stroke-linecap="round" stroke-linejoin="round"/>
</svg>
