<svg width="24" height="25" viewBox="0 0 24 25" fill="none" xmlns="http://www.w3.org/2000/svg">
<g clip-path="url(#clip0_173_2736)">
<path d="M24 12.9387C24 6.3113 18.6274 0.938721 12 0.938721C5.37258 0.938721 0 6.3113 0 12.9387C0 18.9282 4.3882 23.8927 10.125 24.7929V16.4075H7.07812V12.9387H10.125V10.295C10.125 7.28747 11.9166 5.62622 14.6576 5.62622C15.9701 5.62622 17.3438 5.8606 17.3438 5.8606V8.81372H15.8306C14.34 8.81372 13.875 9.7388 13.875 10.6887V12.9387H17.2031L16.6711 16.4075H13.875V24.7929C19.6118 23.8927 24 18.9282 24 12.9387Z" fill="#666666"/>
</g>
<defs>
<clipPath id="clip0_173_2736">
<rect width="24" height="24" fill="white" transform="translate(0 0.938721)"/>
</clipPath>
</defs>
</svg>
