<svg width="24" height="25" viewBox="0 0 24 25" fill="none" xmlns="http://www.w3.org/2000/svg">
<g clip-path="url(#clip0_173_2737)">
<path d="M12 3.09966C15.2063 3.09966 15.5859 3.11372 16.8469 3.16997C18.0188 3.22153 18.6516 3.41841 19.0734 3.58247C19.6313 3.7981 20.0344 4.0606 20.4516 4.47778C20.8734 4.89966 21.1313 5.2981 21.3469 5.85591C21.5109 6.27778 21.7078 6.91528 21.7594 8.08247C21.8156 9.34809 21.8297 9.72778 21.8297 12.9293C21.8297 16.1356 21.8156 16.5153 21.7594 17.7762C21.7078 18.9481 21.5109 19.5809 21.3469 20.0028C21.1313 20.5606 20.8687 20.9637 20.4516 21.3809C20.0297 21.8028 19.6313 22.0606 19.0734 22.2762C18.6516 22.4403 18.0141 22.6372 16.8469 22.6887C15.5813 22.745 15.2016 22.759 12 22.759C8.79375 22.759 8.41406 22.745 7.15313 22.6887C5.98125 22.6372 5.34844 22.4403 4.92656 22.2762C4.36875 22.0606 3.96563 21.7981 3.54844 21.3809C3.12656 20.959 2.86875 20.5606 2.65313 20.0028C2.48906 19.5809 2.29219 18.9434 2.24063 17.7762C2.18438 16.5106 2.17031 16.1309 2.17031 12.9293C2.17031 9.7231 2.18438 9.34341 2.24063 8.08247C2.29219 6.9106 2.48906 6.27778 2.65313 5.85591C2.86875 5.2981 3.13125 4.89497 3.54844 4.47778C3.97031 4.05591 4.36875 3.7981 4.92656 3.58247C5.34844 3.41841 5.98594 3.22153 7.15313 3.16997C8.41406 3.11372 8.79375 3.09966 12 3.09966ZM12 0.938721C8.74219 0.938721 8.33438 0.952783 7.05469 1.00903C5.77969 1.06528 4.90313 1.27153 4.14375 1.56685C3.35156 1.87622 2.68125 2.28403 2.01563 2.95435C1.34531 3.61997 0.9375 4.29028 0.628125 5.07778C0.332812 5.84185 0.126563 6.71372 0.0703125 7.98872C0.0140625 9.2731 0 9.68091 0 12.9387C0 16.1965 0.0140625 16.6043 0.0703125 17.884C0.126563 19.159 0.332812 20.0356 0.628125 20.795C0.9375 21.5872 1.34531 22.2575 2.01563 22.9231C2.68125 23.5887 3.35156 24.0012 4.13906 24.3059C4.90313 24.6012 5.775 24.8075 7.05 24.8637C8.32969 24.92 8.7375 24.934 11.9953 24.934C15.2531 24.934 15.6609 24.92 16.9406 24.8637C18.2156 24.8075 19.0922 24.6012 19.8516 24.3059C20.6391 24.0012 21.3094 23.5887 21.975 22.9231C22.6406 22.2575 23.0531 21.5872 23.3578 20.7997C23.6531 20.0356 23.8594 19.1637 23.9156 17.8887C23.9719 16.609 23.9859 16.2012 23.9859 12.9434C23.9859 9.6856 23.9719 9.27778 23.9156 7.9981C23.8594 6.7231 23.6531 5.84653 23.3578 5.08716C23.0625 4.29028 22.6547 3.61997 21.9844 2.95435C21.3188 2.28872 20.6484 1.87622 19.8609 1.57153C19.0969 1.27622 18.225 1.06997 16.95 1.01372C15.6656 0.952783 15.2578 0.938721 12 0.938721Z" fill="#666666"/>
<path d="M12 6.77466C8.59688 6.77466 5.83594 9.5356 5.83594 12.9387C5.83594 16.3418 8.59688 19.1028 12 19.1028C15.4031 19.1028 18.1641 16.3418 18.1641 12.9387C18.1641 9.5356 15.4031 6.77466 12 6.77466ZM12 16.9372C9.79219 16.9372 8.00156 15.1465 8.00156 12.9387C8.00156 10.7309 9.79219 8.94028 12 8.94028C14.2078 8.94028 15.9984 10.7309 15.9984 12.9387C15.9984 15.1465 14.2078 16.9372 12 16.9372Z" fill="#666666"/>
<path d="M19.8469 6.53086C19.8469 7.32774 19.2 7.96993 18.4078 7.96993C17.6109 7.96993 16.9688 7.32305 16.9688 6.53086C16.9688 5.73399 17.6156 5.0918 18.4078 5.0918C19.2 5.0918 19.8469 5.73867 19.8469 6.53086Z" fill="#666666"/>
</g>
<defs>
<clipPath id="clip0_173_2737">
<rect width="24" height="24" fill="white" transform="translate(0 0.938721)"/>
</clipPath>
</defs>
</svg>
