<svg width="40" height="40" viewBox="0 0 40 40" fill="none" xmlns="http://www.w3.org/2000/svg">
<circle cx="20" cy="20" r="20" fill="#00B2E2" fill-opacity="0.1"/>
<path d="M28.1004 18.2C28.1004 24.5 20.0004 29.9 20.0004 29.9C20.0004 29.9 11.9004 24.5 11.9004 18.2C11.9004 16.0518 12.7538 13.9915 14.2728 12.4724C15.7919 10.9534 17.8521 10.1 20.0004 10.1C22.1486 10.1 24.2089 10.9534 25.728 12.4724C27.247 13.9915 28.1004 16.0518 28.1004 18.2Z" stroke="#00B2E2" stroke-width="1.8" stroke-linecap="round" stroke-linejoin="round"/>
<path d="M19.9998 20.9C21.491 20.9 22.6998 19.6912 22.6998 18.2C22.6998 16.7088 21.491 15.5 19.9998 15.5C18.5086 15.5 17.2998 16.7088 17.2998 18.2C17.2998 19.6912 18.5086 20.9 19.9998 20.9Z" stroke="#00B2E2" stroke-width="1.8" stroke-linecap="round" stroke-linejoin="round"/>
</svg>
