<svg width="123" height="49" viewBox="0 0 123 49" fill="none" xmlns="http://www.w3.org/2000/svg">
<path d="M61.7092 31.0549H65.4464L72.1642 45.3291L79.0005 31.0549H82.7377L73.9781 48.9387H70.332L61.7092 31.0549Z" fill="#999999"/>
<path d="M85.2808 31.0549H101.323V34.0538H88.7719V38.2103H99.5732V41.2091H88.7719V45.9307H101.615V48.9296H85.2808V31.0549Z" fill="#999999"/>
<path d="M110.803 34.0538H102.809V31.0549H122.297V34.0538H114.303V48.9387H110.812V34.0538H110.803Z" fill="#999999"/>
<path fill-rule="evenodd" clip-rule="evenodd" d="M22.259 24.9478V20.7002H6.79074V24.9478H0V0.938721H6.17092L14.6024 7.80237L22.815 0.938721H28.9859L29.0589 24.9478H22.259ZM56.0303 24.9478V20.7002H40.5621V24.9478H33.6984V0.938721H62.9031V24.9569H56.0303V24.9478ZM40.5621 13.235H56.0303V7.80237H40.5621V13.235ZM97.03 0.938721V24.9478H121.878V19.7249H103.675V15.6778H120.255V10.2087H103.675V6.16166H121.878V0.938721H97.03ZM67.5427 24.9478V0.938721H92.3904V7.80237H74.4063V18.0842H79.9665V13.235H85.5176V13.235H92.3904V24.9478H67.5427Z" fill="#333333"/>
</svg>
