<svg width="186" height="74" viewBox="0 0 186 74" fill="none" xmlns="http://www.w3.org/2000/svg">
<path d="M94.2628 46.05H99.9194L110.088 67.6556L120.435 46.05H126.092L112.833 73.119H107.314L94.2628 46.05Z" fill="#00B2E2"/>
<path d="M129.941 46.05H154.223V50.5891H135.225V56.8804H151.574V61.4195H135.225V68.5661H154.664V73.1052H129.941V46.05Z" fill="#00B2E2"/>
<path d="M168.571 50.5891H156.472V46.05H185.969V50.5891H173.869V73.119H168.585V50.5891H168.571Z" fill="#00B2E2"/>
<path fill-rule="evenodd" clip-rule="evenodd" d="M34.5507 36.8062V30.377H11.1379V36.8062H0.859413V0.465942H10.1998L22.9616 10.8548L35.3923 0.465942H44.7327L44.8431 36.8062H34.5507ZM85.6672 36.8062V30.377H62.2544V36.8062H51.8655V0.465942H96.0699V36.82H85.6672V36.8062ZM62.2544 19.0776H85.6672V10.8548H62.2544V19.0776ZM147.724 0.465942V36.8062H185.334V28.9008H157.782V22.7751H182.878V14.4971H157.782V8.37141H185.334V0.465942H147.724ZM103.092 36.8062V0.465942H140.702V10.8548H113.481V26.4174H121.897V19.0777H130.299V19.0776H140.702V36.8062H103.092Z" fill="#F1F1F1"/>
</svg>
