<svg width="123" height="48" viewBox="0 0 123 48" fill="none" xmlns="http://www.w3.org/2000/svg">
<path d="M61.7092 30.1162H65.4464L72.1642 44.3904L79.0005 30.1162H82.7377L73.9781 48H70.332L61.7092 30.1162Z" fill="#00B2E2"/>
<path d="M85.2808 30.1162H101.323V33.1151H88.7719V37.2716H99.5732V40.2704H88.7719V44.992H101.615V47.9909H85.2808V30.1162Z" fill="#00B2E2"/>
<path d="M110.803 33.1151H102.809V30.1162H122.297V33.1151H114.303V48H110.812V33.1151H110.803Z" fill="#00B2E2"/>
<path fill-rule="evenodd" clip-rule="evenodd" d="M22.259 24.0091V19.7615H6.79074V24.0091H0V0H6.17092L14.6024 6.86365L22.815 0H28.9859L29.0589 24.0091H22.259ZM56.0303 24.0091V19.7615H40.5621V24.0091H33.6984V0H62.9031V24.0182H56.0303V24.0091ZM40.5621 12.2962H56.0303V6.86365H40.5621V12.2962ZM97.03 0V24.0091H121.878V18.7862H103.675V14.7391H120.255V9.27003H103.675V5.22294H121.878V0H97.03ZM67.5427 24.0091V0H92.3904V6.86365H74.4063V17.1454H79.9665V12.2963H85.5176V12.2962H92.3904V24.0091H67.5427Z" fill="black"/>
</svg>
