<svg width="20" height="20" viewBox="0 0 20 20" fill="none" xmlns="http://www.w3.org/2000/svg">
<path d="M17.5001 13.69V15.94C17.5009 16.1489 17.4581 16.3556 17.3745 16.547C17.2908 16.7384 17.168 16.9102 17.0141 17.0514C16.8602 17.1926 16.6785 17.3001 16.4806 17.367C16.2828 17.4339 16.0731 17.4588 15.8651 17.44C13.5572 17.1892 11.3403 16.4006 9.39257 15.1375C7.58044 13.986 6.04407 12.4496 4.89257 10.6375C3.62506 8.68088 2.83625 6.45323 2.59007 4.13498C2.57133 3.92758 2.59598 3.71855 2.66245 3.5212C2.72892 3.32385 2.83575 3.1425 2.97615 2.9887C3.11654 2.8349 3.28743 2.71201 3.47792 2.62787C3.6684 2.54373 3.87433 2.50018 4.08257 2.49998H6.33257C6.69655 2.4964 7.04942 2.62529 7.32539 2.86263C7.60137 3.09997 7.78163 3.42957 7.83257 3.78998C7.92754 4.51003 8.10366 5.21703 8.35757 5.89748C8.45848 6.16592 8.48032 6.45767 8.4205 6.73814C8.36069 7.01862 8.22172 7.27606 8.02007 7.47998L7.06757 8.43248C8.13524 10.3101 9.68991 11.8648 11.5676 12.9325L12.5201 11.98C12.724 11.7783 12.9814 11.6394 13.2619 11.5796C13.5424 11.5197 13.8341 11.5416 14.1026 11.6425C14.783 11.8964 15.49 12.0725 16.2101 12.1675C16.5744 12.2189 16.9071 12.4024 17.145 12.6831C17.3828 12.9638 17.5092 13.3222 17.5001 13.69Z" stroke="white" stroke-width="1.5" stroke-linecap="round" stroke-linejoin="round"/>
</svg>
