<svg width="20" height="21" viewBox="0 0 20 21" fill="none" xmlns="http://www.w3.org/2000/svg">
<path d="M17.4999 14.6288V16.8788C17.5008 17.0877 17.458 17.2944 17.3743 17.4858C17.2907 17.6772 17.1679 17.849 17.014 17.9902C16.8601 18.1314 16.6784 18.2389 16.4805 18.3058C16.2826 18.3727 16.073 18.3976 15.8649 18.3788C13.5571 18.128 11.3402 17.3394 9.39245 16.0763C7.58032 14.9248 6.04395 13.3884 4.89245 11.5763C3.62493 9.6197 2.83613 7.39204 2.58995 5.07379C2.57121 4.86639 2.59586 4.65736 2.66233 4.46001C2.72879 4.26266 2.83563 4.08131 2.97602 3.92751C3.11642 3.77371 3.2873 3.65083 3.47779 3.56668C3.66828 3.48254 3.87421 3.43899 4.08245 3.43879H6.33245C6.69643 3.43521 7.04929 3.5641 7.32527 3.80144C7.60125 4.03878 7.78151 4.36838 7.83245 4.72879C7.92742 5.44884 8.10354 6.15584 8.35745 6.83629C8.45836 7.10474 8.4802 7.39648 8.42038 7.67695C8.36056 7.95743 8.2216 8.21488 8.01995 8.41879L7.06745 9.37129C8.13512 11.249 9.68979 12.8036 11.5675 13.8713L12.5199 12.9188C12.7239 12.7171 12.9813 12.5782 13.2618 12.5184C13.5423 12.4585 13.834 12.4804 14.1024 12.5813C14.7829 12.8352 15.4899 13.0113 16.21 13.1063C16.5743 13.1577 16.907 13.3412 17.1448 13.6219C17.3827 13.9026 17.5091 14.261 17.4999 14.6288Z" stroke="#0068A2" stroke-width="1.5" stroke-linecap="round" stroke-linejoin="round"/>
</svg>
