<svg width="40" height="40" viewBox="0 0 40 40" fill="none"
    xmlns="http://www.w3.org/2000/svg">
    <circle cx="20" cy="20" r="20" fill="#e28b00" fill-opacity="0.1"/>
    <path d="M28.9999 24.428V27.128C29.0009 27.3786 28.9496 27.6267 28.8492 27.8564C28.7487 28.086 28.6015 28.2922 28.4168 28.4616C28.2321 28.6311 28.014 28.7601 27.7766 28.8404C27.5391 28.9207 27.2875 28.9505 27.0379 28.928C24.2684 28.627 21.6082 27.6807 19.2709 26.165C17.0963 24.7832 15.2527 22.9395 13.8709 20.765C12.3499 18.417 11.4033 15.7439 11.1079 12.962C11.0854 12.7131 11.115 12.4622 11.1947 12.2254C11.2745 11.9886 11.4027 11.771 11.5712 11.5864C11.7397 11.4019 11.9447 11.2544 12.1733 11.1534C12.4019 11.0525 12.649 11.0002 12.8989 11H15.5989C16.0357 10.9957 16.4591 11.1503 16.7903 11.4351C17.1214 11.72 17.3378 12.1155 17.3989 12.548C17.5129 13.412 17.7242 14.2604 18.0289 15.077C18.15 15.3991 18.1762 15.7492 18.1044 16.0858C18.0326 16.4223 17.8659 16.7313 17.6239 16.976L16.4809 18.119C17.7621 20.3722 19.6277 22.2378 21.8809 23.519L23.0239 22.376C23.2686 22.134 23.5775 21.9672 23.9141 21.8954C24.2507 21.8237 24.6008 21.8499 24.9229 21.971C25.7394 22.2757 26.5878 22.487 27.4519 22.601C27.8891 22.6626 28.2884 22.8829 28.5738 23.2197C28.8592 23.5566 29.0108 23.9866 28.9999 24.428Z" stroke="#e28b00" stroke-width="1.8" stroke-linecap="round" stroke-linejoin="round"/>
</svg>
