<svg width="21" height="20" viewBox="0 0 21 20" fill="none" xmlns="http://www.w3.org/2000/svg">
<path d="M15.4555 11.3156L12.9555 10.0656C12.8571 10.0166 12.7475 9.99438 12.6377 10.0012C12.528 10.0081 12.422 10.0438 12.3305 10.1047L11.1828 10.8703C10.656 10.5807 10.2224 10.1471 9.93282 9.62031L10.6984 8.47266C10.7594 8.38112 10.795 8.27514 10.8019 8.1654C10.8088 8.05567 10.7865 7.94606 10.7375 7.84766L9.4875 5.34766C9.43569 5.24302 9.35561 5.155 9.25633 5.09355C9.15705 5.0321 9.04254 4.9997 8.92578 5C8.09698 5 7.30213 5.32924 6.71608 5.91529C6.13002 6.50134 5.80078 7.2962 5.80078 8.125C5.80285 9.94773 6.52784 11.6952 7.81671 12.9841C9.10557 14.2729 10.8531 14.9979 12.6758 15C13.0862 15 13.4925 14.9192 13.8717 14.7621C14.2508 14.6051 14.5953 14.3749 14.8855 14.0847C15.1757 13.7945 15.4059 13.45 15.5629 13.0709C15.72 12.6917 15.8008 12.2854 15.8008 11.875C15.8009 11.7589 15.7686 11.645 15.7076 11.5462C15.6466 11.4474 15.5593 11.3676 15.4555 11.3156ZM12.6758 13.75C11.1844 13.7483 9.75467 13.1552 8.70014 12.1006C7.6456 11.0461 7.05244 9.61633 7.05078 8.125C7.05066 7.6915 7.20076 7.27135 7.47552 6.93605C7.75029 6.60075 8.13274 6.37101 8.55782 6.28594L9.45469 8.08281L8.69141 9.21875C8.63437 9.30431 8.59933 9.40262 8.58938 9.50496C8.57943 9.60731 8.59489 9.71053 8.63438 9.80547C9.08155 10.8683 9.92705 11.7138 10.9898 12.1609C11.0851 12.2022 11.1891 12.2191 11.2925 12.2101C11.3958 12.2011 11.4954 12.1665 11.582 12.1094L12.7234 11.3484L14.5203 12.2453C14.4346 12.6709 14.2038 13.0535 13.8675 13.3279C13.5311 13.6023 13.1099 13.7515 12.6758 13.75ZM10.8008 1.875C9.39802 1.87469 8.01908 2.23757 6.79817 2.9283C5.57726 3.61904 4.55598 4.6141 3.83373 5.81664C3.11149 7.01918 2.71288 8.38822 2.67671 9.79052C2.64055 11.1928 2.96805 12.5806 3.62735 13.8188L2.74063 16.4789C2.66718 16.6992 2.65652 16.9355 2.70985 17.1615C2.76317 17.3874 2.87837 17.5941 3.04254 17.7582C3.20671 17.9224 3.41336 18.0376 3.63932 18.0909C3.86528 18.1443 4.10163 18.1336 4.32188 18.0602L6.98203 17.1734C8.0717 17.753 9.27908 18.0767 10.5125 18.12C11.746 18.1633 12.9731 17.925 14.1007 17.4232C15.2283 16.9215 16.2268 16.1694 17.0203 15.2241C17.8139 14.2789 18.3817 13.1652 18.6806 11.9678C18.9795 10.7703 19.0017 9.52047 18.7454 8.31315C18.4892 7.10584 17.9613 5.97276 17.2017 4.99993C16.4422 4.02711 15.4711 3.24009 14.362 2.69864C13.2529 2.15718 12.035 1.87551 10.8008 1.875ZM10.8008 16.875C9.59217 16.8758 8.40477 16.5575 7.3586 15.9523C7.282 15.9079 7.19684 15.8803 7.10875 15.8713C7.02067 15.8622 6.93167 15.872 6.84766 15.9L3.92578 16.875L4.9 13.9531C4.92809 13.8692 4.93801 13.7802 4.92912 13.6921C4.92023 13.604 4.89273 13.5188 4.84844 13.4422C4.09061 12.132 3.78634 10.6083 3.98284 9.10747C4.17934 7.60667 4.86562 6.21267 5.93523 5.14171C7.00483 4.07076 8.39797 3.38271 9.89851 3.18431C11.3991 2.98592 12.9231 3.28826 14.2343 4.04444C15.5455 4.80062 16.5705 5.96837 17.1503 7.36652C17.7301 8.76468 17.8322 10.3151 17.441 11.7773C17.0497 13.2394 16.1868 14.5316 14.9862 15.4533C13.7856 16.375 12.3144 16.8748 10.8008 16.875Z" fill="white"/>
</svg>
