<svg width="26" height="27" viewBox="0 0 26 27" fill="none" xmlns="http://www.w3.org/2000/svg">
<path d="M20.4484 16.0437L16.4484 14.0437C16.2909 13.9653 16.1156 13.9297 15.94 13.9407C15.7644 13.9517 15.5948 14.0088 15.4484 14.1062L13.6121 15.3312C12.7692 14.8678 12.0755 14.1742 11.6121 13.3312L12.8371 11.495C12.9346 11.3485 12.9917 11.1789 13.0027 11.0034C13.0136 10.8278 12.9781 10.6524 12.8996 10.495L10.8996 6.49497C10.8167 6.32756 10.6886 6.18672 10.5298 6.0884C10.3709 5.99009 10.1877 5.93824 10.0009 5.93872C8.6748 5.93872 7.40303 6.46551 6.46535 7.40319C5.52767 8.34087 5.00088 9.61264 5.00088 10.9387C5.00419 13.8551 6.16418 16.6511 8.22636 18.7132C10.2885 20.7754 13.0845 21.9354 16.0009 21.9387C16.6575 21.9387 17.3077 21.8094 17.9143 21.5581C18.5209 21.3068 19.0721 20.9385 19.5364 20.4743C20.0007 20.01 20.369 19.4588 20.6203 18.8521C20.8716 18.2455 21.0009 17.5953 21.0009 16.9387C21.001 16.7529 20.9494 16.5708 20.8518 16.4127C20.7542 16.2546 20.6145 16.1269 20.4484 16.0437ZM16.0009 19.9387C13.6147 19.9361 11.3271 18.987 9.63985 17.2998C7.95259 15.6125 7.00353 13.3249 7.00088 10.9387C7.00069 10.2451 7.24084 9.57288 7.68046 9.0364C8.12009 8.49992 8.73202 8.13234 9.41213 7.99622L10.8471 10.8712L9.62588 12.6887C9.53462 12.8256 9.47855 12.9829 9.46263 13.1467C9.44672 13.3104 9.47145 13.4756 9.53463 13.6275C10.2501 15.328 11.6029 16.6807 13.3034 17.3962C13.4558 17.4622 13.6222 17.4892 13.7876 17.4748C13.953 17.4604 14.1122 17.4051 14.2509 17.3137L16.0771 16.0962L18.9521 17.5312C18.815 18.2121 18.4458 18.8243 17.9076 19.2634C17.3693 19.7024 16.6955 19.9411 16.0009 19.9387ZM13.0009 0.938721C10.7565 0.938231 8.55016 1.51883 6.5967 2.62401C4.64324 3.72918 3.00919 5.32129 1.8536 7.24535C0.698005 9.16941 0.0602364 11.3599 0.00236931 13.6035C-0.0554978 15.8472 0.468509 18.0676 1.52338 20.0487L0.104634 24.305C-0.0128848 24.6574 -0.0299396 25.0355 0.0553817 25.3971C0.140703 25.7586 0.325028 26.0892 0.587699 26.3519C0.850369 26.6146 1.181 26.7989 1.54254 26.8842C1.90408 26.9695 2.28224 26.9525 2.63463 26.835L6.89088 25.4162C8.63435 26.3435 10.5662 26.8615 12.5397 26.9307C14.5132 27 16.4765 26.6187 18.2807 25.8159C20.0849 25.0131 21.6825 23.8098 22.9521 22.2973C24.2218 20.7849 25.1303 19.0031 25.6085 17.0871C26.0868 15.1712 26.1223 13.1715 25.7123 11.2398C25.3023 9.30806 24.4577 7.49514 23.2424 5.93862C22.0272 4.38209 20.4733 3.12287 18.6988 2.25654C16.9242 1.39021 14.9756 0.939531 13.0009 0.938721ZM13.0009 24.9387C11.0671 24.94 9.16726 24.4308 7.49338 23.4625C7.37083 23.3914 7.23457 23.3472 7.09364 23.3327C6.9527 23.3183 6.81031 23.334 6.67588 23.3787L2.00088 24.9387L3.55963 20.2637C3.60457 20.1294 3.62045 19.987 3.60622 19.8461C3.592 19.7052 3.548 19.5689 3.47713 19.4462C2.2646 17.3499 1.77777 14.9119 2.09217 12.5107C2.40657 10.1094 3.50463 7.87899 5.21599 6.16546C6.92736 4.45193 9.15638 3.35106 11.5573 3.03362C13.9581 2.71619 16.3967 3.19994 18.4945 4.40983C20.5924 5.61971 22.2324 7.48811 23.1601 9.72516C24.0877 11.9622 24.2512 14.4429 23.6252 16.7823C22.9991 19.1218 21.6185 21.1892 19.6976 22.664C17.7766 24.1387 15.4227 24.9383 13.0009 24.9387Z" fill="#666666"/>
</svg>
